<svg width="275" height="80" viewBox="0 0 275 80" fill="none" xmlns="http://www.w3.org/2000/svg">
<g clip-path="url(#clip0_6_70)">
<path d="M49.8509 69.1616L45.9497 65.2603M8.27591 49.6552H2.75867M14.7391 34.0501L10.8379 30.1488M30.3449 77.2414V71.7241M10.8379 69.1616L14.7391 65.2603" stroke="#6A6A6A" stroke-opacity="0.73" stroke-width="6" stroke-linecap="round" stroke-linejoin="round"/>
<path d="M60.6897 19.3104L22.069 57.9311M66.2069 38.6207H41.3793M34.7586 49.6552H53.3442C54.0189 49.6552 54.3563 49.6552 54.6737 49.579C54.9552 49.5114 55.2243 49.3999 55.4711 49.2487C55.7495 49.0781 55.9881 48.8395 56.4652 48.3624L70.3448 34.4828C71.004 33.8236 71.3336 33.494 71.5989 33.2022C77.3373 26.8892 77.3373 17.2488 71.5989 10.9358C71.3336 10.644 71.004 10.3144 70.3448 9.65519C69.6856 8.99599 69.356 8.66638 69.0642 8.40113C62.7512 2.66276 53.1108 2.66276 46.7979 8.40113C46.5061 8.66638 46.1765 8.99599 45.5173 9.65519L31.6376 23.5348C31.1605 24.0119 30.9219 24.2505 30.7513 24.5289C30.6001 24.7757 30.4886 25.0448 30.4211 25.3263C30.3448 25.6438 30.3448 25.9811 30.3448 26.6559V45.2414C30.3448 46.7864 30.3448 47.5589 30.6455 48.149C30.91 48.668 31.332 49.09 31.8511 49.3545C32.4412 49.6552 33.2137 49.6552 34.7586 49.6552Z" stroke="black" stroke-width="5" stroke-linecap="round" stroke-linejoin="round"/>
</g>
<path d="M115.056 54.172C110.016 54.172 105.84 52.492 102.528 49.132C99.216 45.772 97.584 41.644 97.584 36.7C97.584 31.756 99.216 27.58 102.528 24.268C105.84 20.908 110.016 19.228 115.056 19.228C121.152 19.228 126.624 22.3 129.504 27.148L123.792 30.46C122.112 27.436 118.896 25.66 115.056 25.66C111.792 25.66 109.152 26.668 107.136 28.732C105.168 30.796 104.16 33.436 104.16 36.7C104.16 39.916 105.168 42.556 107.136 44.62C109.152 46.684 111.792 47.692 115.056 47.692C118.896 47.692 122.208 45.868 123.792 42.94L129.504 46.252C126.624 51.1 121.2 54.172 115.056 54.172ZM153.874 50.524C151.426 52.972 148.402 54.172 144.85 54.172C141.298 54.172 138.274 52.972 135.826 50.524C133.378 48.076 132.178 45.052 132.178 41.5C132.178 37.948 133.378 34.972 135.826 32.524C138.274 30.076 141.298 28.828 144.85 28.828C148.402 28.828 151.426 30.076 153.874 32.524C156.322 34.972 157.57 37.948 157.57 41.5C157.57 45.052 156.322 48.076 153.874 50.524ZM140.194 46.252C141.442 47.5 142.978 48.124 144.85 48.124C146.722 48.124 148.258 47.5 149.506 46.252C150.754 45.004 151.378 43.42 151.378 41.5C151.378 39.58 150.754 37.996 149.506 36.748C148.258 35.5 146.722 34.876 144.85 34.876C142.978 34.876 141.442 35.5 140.194 36.748C138.994 37.996 138.37 39.58 138.37 41.5C138.37 43.42 138.994 45.004 140.194 46.252ZM168.118 53.5H161.926V18.46H168.118V53.5ZM191.977 32.332V19.9H198.169V53.5H191.977V50.668C190.153 53.02 187.561 54.172 184.201 54.172C180.985 54.172 178.201 52.972 175.897 50.524C173.641 48.076 172.489 45.052 172.489 41.5C172.489 37.948 173.641 34.972 175.897 32.524C178.201 30.076 180.985 28.828 184.201 28.828C187.561 28.828 190.153 29.98 191.977 32.332ZM180.553 46.396C181.849 47.644 183.433 48.268 185.353 48.268C187.273 48.268 188.857 47.644 190.105 46.396C191.353 45.1 191.977 43.468 191.977 41.5C191.977 39.532 191.353 37.9 190.105 36.652C188.857 35.356 187.273 34.732 185.353 34.732C183.433 34.732 181.849 35.356 180.553 36.652C179.305 37.9 178.681 39.532 178.681 41.5C178.681 43.468 179.305 45.1 180.553 46.396ZM213.672 54.172C208.392 54.172 204.696 52.06 202.584 47.788L208.296 44.524C209.352 46.636 211.128 47.692 213.672 47.692C217.176 47.692 218.904 45.916 218.904 43.036V19.9H225.48V43.036C225.48 46.54 224.376 49.276 222.168 51.244C219.96 53.212 217.128 54.172 213.672 54.172ZM251.374 50.524C248.926 52.972 245.902 54.172 242.35 54.172C238.798 54.172 235.774 52.972 233.326 50.524C230.878 48.076 229.678 45.052 229.678 41.5C229.678 37.948 230.878 34.972 233.326 32.524C235.774 30.076 238.798 28.828 242.35 28.828C245.902 28.828 248.926 30.076 251.374 32.524C253.822 34.972 255.07 37.948 255.07 41.5C255.07 45.052 253.822 48.076 251.374 50.524ZM237.694 46.252C238.942 47.5 240.478 48.124 242.35 48.124C244.222 48.124 245.758 47.5 247.006 46.252C248.254 45.004 248.878 43.42 248.878 41.5C248.878 39.58 248.254 37.996 247.006 36.748C245.758 35.5 244.222 34.876 242.35 34.876C240.478 34.876 238.942 35.5 237.694 36.748C236.494 37.996 235.87 39.58 235.87 41.5C235.87 43.42 236.494 45.004 237.694 46.252ZM272.638 29.5V35.452H267.214V45.436C267.214 48.028 269.086 48.076 272.638 47.884V53.5C264.142 54.46 261.022 52.012 261.022 45.436V35.452H256.846V29.5H261.022V24.652L267.214 22.78V29.5H272.638Z" fill="black"/>
<defs>
<clipPath id="clip0_6_70">
<rect width="80" height="80" fill="white"/>
</clipPath>
</defs>
</svg>
