<svg width="80" height="80" viewBox="0 0 80 80" fill="none" xmlns="http://www.w3.org/2000/svg">
<g clip-path="url(#clip0_6_65)">
<path d="M49.8509 69.1616L45.9496 65.2603M8.27585 49.6552H2.75861M14.7391 34.0501L10.8378 30.1488M30.3448 77.2414V71.7241M10.8378 69.1616L14.7391 65.2603" stroke="#6A6A6A" stroke-opacity="0.73" stroke-width="6" stroke-linecap="round" stroke-linejoin="round"/>
<path d="M60.6897 19.3104L22.069 57.9311M66.2069 38.6207H41.3793M34.7586 49.6552H53.3442C54.0189 49.6552 54.3563 49.6552 54.6737 49.579C54.9552 49.5114 55.2243 49.3999 55.4711 49.2487C55.7495 49.0781 55.9881 48.8395 56.4652 48.3624L70.3448 34.4828C71.004 33.8236 71.3336 33.494 71.5989 33.2022C77.3373 26.8892 77.3373 17.2488 71.5989 10.9358C71.3336 10.644 71.004 10.3144 70.3448 9.65519C69.6856 8.99599 69.356 8.66638 69.0642 8.40113C62.7512 2.66276 53.1108 2.66276 46.7979 8.40113C46.5061 8.66638 46.1765 8.99599 45.5173 9.65519L31.6376 23.5348C31.1605 24.0119 30.9219 24.2505 30.7513 24.5289C30.6001 24.7757 30.4886 25.0448 30.4211 25.3263C30.3448 25.6438 30.3448 25.9811 30.3448 26.6559V45.2414C30.3448 46.7864 30.3448 47.5589 30.6455 48.149C30.91 48.668 31.332 49.09 31.8511 49.3545C32.4412 49.6552 33.2137 49.6552 34.7586 49.6552Z" stroke="black" stroke-width="5" stroke-linecap="round" stroke-linejoin="round"/>
</g>
<defs>
<clipPath id="clip0_6_65">
<rect width="80" height="80" fill="white"/>
</clipPath>
</defs>
</svg>
